<svg width="22" height="19" viewBox="0 0 22 19" fill="none" xmlns="http://www.w3.org/2000/svg">
<g clip-path="url(#clip0_2016_1356)">
<path d="M14.0668 17.885L13.9205 17.8289L13.9143 17.8273C13.733 17.7572 13.5466 17.6859 13.3721 17.6082C12.3655 17.135 11.4508 16.5089 10.6656 15.7556C9.32231 14.4929 8.13115 13.0975 7.11334 11.5942C6.14286 10.2492 5.3137 8.8204 4.63733 7.32757C4.14847 6.29178 3.84767 5.18768 3.7472 4.06025C3.73529 3.86987 3.73779 3.67583 3.73624 3.50356C3.74005 3.40925 3.74102 3.31319 3.74039 3.21881L3.84758 2.73094C4.24785 2.22386 4.76465 1.80628 5.36032 1.50861C5.7597 1.28105 6.16653 1.07399 6.65115 0.832499C6.83036 0.742787 7.0303 0.694923 7.23378 0.693025C7.43726 0.691126 7.6382 0.735249 7.8193 0.8216C8.03362 0.909126 8.20192 1.07212 8.28734 1.27489C8.37818 1.48739 8.46824 1.70003 8.55752 1.91283L8.56628 1.93262L8.58753 1.98244C8.93568 2.8055 9.29686 3.65667 9.67706 4.48048C9.77979 4.69151 9.81754 4.92495 9.7861 5.15477C9.75466 5.38459 9.65526 5.60177 9.49898 5.78212C9.38307 5.93337 9.24688 6.08163 9.12796 6.21245L9.08698 6.25814L8.99413 6.36027L8.94649 6.41361C8.78006 6.60506 8.58064 6.81831 8.38644 7.01733C8.34668 7.04667 8.32032 7.08892 8.31265 7.1356C8.30498 7.18227 8.31657 7.22992 8.34509 7.26898C8.46726 7.47445 8.58776 7.68572 8.7037 7.88963L8.71406 7.90775C8.93475 8.30036 9.17059 8.70608 9.42216 9.0919C10.1268 10.2121 10.9331 11.2741 11.8323 12.2663C11.8681 12.3174 11.9228 12.3543 11.986 12.3701C12.0493 12.3859 12.1165 12.3793 12.1749 12.3518C12.6213 12.2043 13.0943 12.0572 13.6224 11.9042C13.904 11.8044 14.2124 11.79 14.5033 11.8631C14.5651 11.8786 14.6257 11.8979 14.6847 11.9208C14.7877 11.9628 14.882 12.0214 14.9631 12.0938C15.9867 13.0481 16.891 13.8991 17.7386 14.6956C17.8864 14.8631 17.9732 15.07 17.9867 15.2864C18.0001 15.5028 17.9394 15.7176 17.8133 15.8998C17.7549 16.0036 17.6795 16.0983 17.59 16.1806C16.9121 16.7889 16.1472 17.3072 15.317 17.7206C15.0762 17.8213 14.8285 17.9068 14.5755 17.9768L14.0668 17.885Z" fill="#2FAF21"/>
</g>
<defs>
<clipPath id="clip0_2016_1356">
<rect width="20.7811" height="18.631" fill="white" transform="translate(0.462708)"/>
</clipPath>
</defs>
</svg>
