<svg width="25" height="17" viewBox="0 0 25 17" fill="none" xmlns="http://www.w3.org/2000/svg">
<g clip-path="url(#clip0_2016_1354)">
<path d="M21.9286 17H3.3537C2.68381 17.0011 2.04085 16.7547 1.56596 16.3151C1.09108 15.8754 0.823077 15.2784 0.820801 14.655L0.820801 2.991L12.6417 9.173L24.4626 2.991V14.655C24.46 15.2785 24.1918 15.8755 23.7167 16.3151C23.2417 16.7548 22.5986 17.0011 21.9286 17ZM12.6417 7.829L0.928263 1.7C1.08146 1.21114 1.40041 0.781464 1.83752 0.475092C2.27463 0.16872 2.80647 0.00206819 3.3537 0L21.9286 0C22.4762 0.00120702 23.0086 0.167514 23.4461 0.473998C23.8835 0.780483 24.2025 1.21064 24.3551 1.7L12.6417 7.828V7.829Z" fill="#2FAF21"/>
</g>
<defs>
<clipPath id="clip0_2016_1354">
<rect width="23.6418" height="17" fill="white" transform="translate(0.820801)"/>
</clipPath>
</defs>
</svg>
