<svg width="80" height="82" viewBox="0 0 120 122" fill="none" xmlns="http://www.w3.org/2000/svg">
<path opacity="0.09" d="M60 97.0441C79.581 97.0441 95.4545 80.9059 95.4545 60.9986C95.4545 41.0912 79.581 24.9531 60 24.9531C40.419 24.9531 24.5455 41.0912 24.5455 60.9986C24.5455 80.9059 40.419 97.0441 60 97.0441Z" fill="white"/>
<path opacity="0.09" d="M60 100.743C81.5893 100.743 99.0909 82.9494 99.0909 61.0002C99.0909 39.0511 81.5893 21.2578 60 21.2578C38.4107 21.2578 20.9091 39.0511 20.9091 61.0002C20.9091 82.9494 38.4107 100.743 60 100.743Z" fill="white"/>
<path opacity="0.09" d="M60 103.515C83.0955 103.515 101.818 84.48 101.818 60.9995C101.818 37.5191 83.0955 18.4844 60 18.4844C36.9045 18.4844 18.1818 37.5191 18.1818 60.9995C18.1818 84.48 36.9045 103.515 60 103.515Z" fill="white"/>
<path opacity="0.09" d="M60 109.059C86.108 109.059 107.273 87.5413 107.273 60.9981C107.273 34.455 86.108 12.9375 60 12.9375C33.892 12.9375 12.7273 34.455 12.7273 60.9981C12.7273 87.5413 33.892 109.059 60 109.059Z" fill="white"/>
<g filter="url(#filter0_d_2016_1363)">
<path d="M26.7479 60.9883C26.752 53.6475 29.336 46.5337 34.062 40.8523C38.788 35.1708 45.3655 31.271 52.6801 29.8134C59.9947 28.3558 67.5966 29.4302 74.1981 32.8545C80.7996 36.2788 85.9946 41.8424 88.9032 48.6028C92.2426 56.3785 92.3049 65.1405 89.0764 72.9614C85.8479 80.7823 79.593 87.0213 71.6878 90.306C63.7825 93.5907 54.8744 93.652 46.9232 90.4764C38.972 87.3009 32.629 81.1485 29.2895 73.3728C27.6039 69.4549 26.7394 65.2426 26.7479 60.9883ZM71.4535 56.1628C71.4535 55.9217 71.3561 55.6905 71.1828 55.52C71.0094 55.3495 70.7743 55.2537 70.5292 55.2537L47.6653 55.2537C47.4202 55.2537 47.1851 55.3495 47.0118 55.52C46.8384 55.6905 46.7411 55.9217 46.7411 56.1628C46.7425 56.3562 46.8074 56.544 46.9259 56.6983L58.3514 71.9883C58.4373 72.1031 58.5494 72.1965 58.6787 72.2608C58.8081 72.3251 58.951 72.3587 59.0959 72.3587C59.2408 72.3587 59.3837 72.3251 59.513 72.2608C59.6423 72.1965 59.7545 72.1031 59.8404 71.9883L71.2714 56.6974C71.3888 56.543 71.4526 56.3556 71.4535 56.1628Z" fill="white"/>
</g>
<path opacity="0.04" d="M60 105.36C84.0997 105.36 103.636 85.4978 103.636 60.9965C103.636 36.4951 84.0997 16.6328 60 16.6328C35.9003 16.6328 16.3636 36.4951 16.3636 60.9965C16.3636 85.4978 35.9003 105.36 60 105.36Z" fill="white"/>
<path opacity="0.04" d="M60 109.985C86.6101 109.985 108.182 88.0541 108.182 61.0005C108.182 33.9469 86.6101 12.0156 60 12.0156C33.3899 12.0156 11.8182 33.9469 11.8182 61.0005C11.8182 88.0541 33.3899 109.985 60 109.985Z" fill="white"/>
<path opacity="0.04" d="M60 114.603C89.1205 114.603 112.727 90.6025 112.727 60.9967C112.727 31.3909 89.1205 7.39062 60 7.39062C30.8795 7.39062 7.27273 31.3909 7.27273 60.9967C7.27273 90.6025 30.8795 114.603 60 114.603Z" fill="white"/>
<path opacity="0.04" d="M60 122C93.1371 122 120 94.6894 120 61C120 27.3106 93.1371 0 60 0C26.8629 0 0 27.3106 0 61C0 94.6894 26.8629 122 60 122Z" fill="white"/>
<ellipse cx="60.5" cy="60" rx="16.5" ry="15" fill="white"/>
<path d="M59 47L59 72" stroke="black" stroke-width="2" stroke-linecap="round" stroke-linejoin="round"/>
<path d="M66 65L59 72L52 65" stroke="black" stroke-width="2" stroke-linecap="round" stroke-linejoin="round"/>
<defs>
<filter id="filter0_d_2016_1363" x="20.7478" y="26.1797" width="76.7058" height="75.6328" filterUnits="userSpaceOnUse" color-interpolation-filters="sRGB">
<feFlood flood-opacity="0" result="BackgroundImageFix"/>
<feColorMatrix in="SourceAlpha" type="matrix" values="0 0 0 0 0 0 0 0 0 0 0 0 0 0 0 0 0 0 127 0" result="hardAlpha"/>
<feOffset dy="3"/>
<feGaussianBlur stdDeviation="3"/>
<feColorMatrix type="matrix" values="0 0 0 0 0 0 0 0 0 0 0 0 0 0 0 0 0 0 0.161 0"/>
<feBlend mode="normal" in2="BackgroundImageFix" result="effect1_dropShadow_2016_1363"/>
<feBlend mode="normal" in="SourceGraphic" in2="effect1_dropShadow_2016_1363" result="shape"/>
</filter>
</defs>
</svg>
