<svg width="120" height="122" viewBox="0 0 120 122" fill="none" xmlns="http://www.w3.org/2000/svg">
<g filter="url(#filter0_d_0_162)">
<path d="M26.7478 60.9915C26.752 53.6506 29.336 46.5369 34.062 40.8554C38.788 35.174 45.3655 31.2741 52.6801 29.8166C59.9947 28.359 67.5966 29.4334 74.1981 32.8577C80.7996 36.2819 85.9946 41.8456 88.9031 48.606C92.2426 56.3817 92.3049 65.1437 89.0764 72.9646C85.8479 80.7854 79.593 87.0245 71.6877 90.3092C63.7825 93.5939 54.8744 93.6552 46.9232 90.4796C38.972 87.304 32.629 81.1517 29.2895 73.376C27.6039 69.4581 26.7394 65.2458 26.7478 60.9915ZM71.4534 56.166C71.4534 55.9249 71.3561 55.6937 71.1827 55.5232C71.0094 55.3527 70.7743 55.2569 70.5292 55.2569L47.6653 55.2569C47.4202 55.2569 47.1851 55.3527 47.0118 55.5232C46.8384 55.6937 46.7411 55.9249 46.7411 56.166C46.7425 56.3594 46.8073 56.5472 46.9259 56.7015L58.3514 71.9915C58.4373 72.1063 58.5494 72.1996 58.6787 72.264C58.8081 72.3283 58.9509 72.3618 59.0959 72.3618C59.2408 72.3618 59.3837 72.3283 59.513 72.264C59.6423 72.1996 59.7545 72.1063 59.8403 71.9915L71.2714 56.7006C71.3888 56.5462 71.4526 56.3588 71.4534 56.166Z" fill="white"/>
</g>
<ellipse cx="60.5" cy="60" rx="16.5" ry="15" fill="white"/>
<path d="M48.5 64.75L59 75.25L69.5 64.75" stroke="black" stroke-width="2" stroke-linecap="round" stroke-linejoin="round"/>
<path d="M48.5 54.75L59 65.25L69.5 54.75" stroke="black" stroke-width="2" stroke-linecap="round" stroke-linejoin="round"/>
<defs>
<filter id="filter0_d_0_162" x="20.7478" y="26.1829" width="76.7057" height="75.635" filterUnits="userSpaceOnUse" color-interpolation-filters="sRGB">
<feFlood flood-opacity="0" result="BackgroundImageFix"/>
<feColorMatrix in="SourceAlpha" type="matrix" values="0 0 0 0 0 0 0 0 0 0 0 0 0 0 0 0 0 0 127 0" result="hardAlpha"/>
<feOffset dy="3"/>
<feGaussianBlur stdDeviation="3"/>
<feColorMatrix type="matrix" values="0 0 0 0 0 0 0 0 0 0 0 0 0 0 0 0 0 0 0.161 0"/>
<feBlend mode="normal" in2="BackgroundImageFix" result="effect1_dropShadow_0_162"/>
<feBlend mode="normal" in="SourceGraphic" in2="effect1_dropShadow_0_162" result="shape"/>
</filter>
</defs>
</svg>
