<svg width="15" height="18" viewBox="0 0 15 18" fill="none" xmlns="http://www.w3.org/2000/svg">
<path d="M11.0668 17.885L10.9205 17.8289L10.9143 17.8273C10.733 17.7572 10.5466 17.6859 10.3721 17.6082C9.36549 17.135 8.45078 16.5089 7.66563 15.7556C6.32231 14.4929 5.13115 13.0975 4.11334 11.5942C3.14286 10.2492 2.3137 8.8204 1.63733 7.32757C1.14847 6.29178 0.847674 5.18768 0.7472 4.06025C0.735292 3.86987 0.737789 3.67583 0.73624 3.50356C0.740046 3.40925 0.741017 3.31319 0.740392 3.21881L0.847579 2.73094C1.24785 2.22386 1.76465 1.80628 2.36032 1.50861C2.7597 1.28105 3.16653 1.07399 3.65115 0.832499C3.83036 0.742787 4.0303 0.694923 4.23378 0.693025C4.43726 0.691126 4.6382 0.735249 4.8193 0.8216C5.03362 0.909126 5.20192 1.07212 5.28734 1.27489C5.37818 1.48739 5.46824 1.70003 5.55752 1.91283L5.56628 1.93262L5.58753 1.98244C5.93568 2.8055 6.29686 3.65667 6.67706 4.48048C6.77979 4.69151 6.81754 4.92495 6.7861 5.15477C6.75466 5.38459 6.65526 5.60177 6.49898 5.78212C6.38307 5.93337 6.24688 6.08163 6.12796 6.21245L6.08698 6.25814L5.99413 6.36027L5.94649 6.41361C5.78006 6.60506 5.58064 6.81831 5.38644 7.01733C5.34668 7.04667 5.32032 7.08892 5.31265 7.1356C5.30498 7.18227 5.31657 7.22992 5.34509 7.26898C5.46726 7.47445 5.58776 7.68572 5.7037 7.88963L5.71406 7.90775C5.93475 8.30036 6.17059 8.70608 6.42216 9.0919C7.12677 10.2121 7.9331 11.2741 8.83233 12.2663C8.86806 12.3174 8.92279 12.3543 8.98603 12.3701C9.04926 12.3859 9.11652 12.3793 9.1749 12.3518C9.62131 12.2043 10.0943 12.0572 10.6224 11.9042C10.904 11.8044 11.2124 11.79 11.5033 11.8631C11.5651 11.8786 11.6257 11.8979 11.6847 11.9208C11.7877 11.9628 11.882 12.0214 11.9631 12.0938C12.9867 13.0481 13.891 13.8991 14.7386 14.6956C14.8864 14.8631 14.9732 15.07 14.9867 15.2864C15.0001 15.5028 14.9394 15.7176 14.8133 15.8998C14.7549 16.0036 14.6795 16.0983 14.59 16.1806C13.9121 16.7889 13.1472 17.3072 12.317 17.7206C12.0762 17.8213 11.8285 17.9068 11.5755 17.9768L11.0668 17.885Z" fill="#2FAF21"/>
</svg>
